<svg xmlns="http://www.w3.org/2000/svg" version="1.1" xmlns:xlink="http://www.w3.org/1999/xlink" viewBox="0 0 700 700" style="overflow: hidden; display: block;" width="700" height="700"><defs><linearGradient id="two-391" x1="350" y1="-350" x2="350" y2="350" spreadMethod="pad" gradientUnits="userSpaceOnUse"><stop offset="0%" stop-color="hsl(197,90%,53%)" stop-opacity="1"></stop><stop offset="100%" stop-color="hsl(168,75%,56%)" stop-opacity="1"></stop></linearGradient></defs><g id="two-0" transform="matrix(1 0 0 1 0 0)" opacity="1"><path transform="matrix(1 0 0 1 350 350)" id="two-390" d="M 156.859081 53.84979 C 139.139189 108.645433 263.589985 141.39119 254.779443 198.3028 C 249.465784 232.626333 206.673794 259.732287 172.144995 263.48753 C 128.337807 268.25186 89.218907 228.814124 51.978304 205.25768 C 28.839525 190.621308 14.515978 150.332391 -12.702466 153.295963 C -75.555788 160.139496 -72.575781 322.048693 -132.741232 302.619526 C -179.874965 287.398679 -117.467815 196.529659 -140.600869 152.733258 C -151.996481 131.158641 -178.921902 121.171957 -199.403343 107.911692 C -232.529186 86.465082 -288.254279 86.783637 -304.470715 50.807176 C -318.087562 20.597952 -307.263765 -25.645582 -281.970316 -47.052524 C -237.668712 -84.546893 -153.125222 -23.144025 -106.412073 -57.587334 C -94.727665 -66.202675 -92.369519 -84.314301 -90.913426 -98.758306 C -85.178138 -155.650615 -165.921728 -238.096116 -118.36486 -269.844699 C -85.740573 -291.624411 -54.775063 -218.67724 -17.189807 -207.450109 C 4.70995 -200.908411 34.914861 -220.648061 52.04353 -205.515253 C 77.565271 -182.967347 44.707094 -128.694408 67.619561 -103.499444 C 78.928587 -91.063835 107.520481 -104.947273 117.017963 -91.078738 C 127.008668 -76.489984 100.038276 -52.221926 110.415913 -37.905832 C 148.733702 14.954084 299.478993 -65.086818 304.590734 -0.000001 C 308.653462 51.729932 172.825021 4.477932 156.859081 53.84979 Z " fill="url(#two-391)" stroke="undefined" stroke-width="1" stroke-opacity="1" fill-opacity="1" visibility="visible" stroke-linecap="butt" stroke-linejoin="miter" stroke-miterlimit="4"></path></g></svg>